<?xml version="1.0" encoding="utf-8"?>
<!-- Generator: Adobe Illustrator 15.0.0, SVG Export Plug-In . SVG Version: 6.00 Build 0)  -->
<!DOCTYPE svg PUBLIC "-//W3C//DTD SVG 1.1//EN" "http://www.w3.org/Graphics/SVG/1.1/DTD/svg11.dtd">
<svg version="1.1" id="Layer_1" xmlns="http://www.w3.org/2000/svg" xmlns:xlink="http://www.w3.org/1999/xlink" x="0px" y="0px"
	 width="348.009px" height="348.009px" viewBox="0 0 348.009 348.009" enable-background="new 0 0 348.009 348.009"
	 xml:space="preserve">
<circle fill="#030100" stroke="#030100" stroke-miterlimit="10" cx="174.004" cy="174.003" r="173.504"/>
<g>
	<path fill="#FFFFFF" d="M104.562,232.866c-9.359,15.121-23.28,26.161-41.521,26.161c-41.761,0-48.001-50.401-48.001-82.082
		c0-31.921,6.24-82.322,48.001-82.322c18.24,0,30.721,10.56,39.121,25.92l-13.681,8.16c-5.04-10.08-13.2-18.96-25.44-18.96
		c-29.281,0-31.201,46.081-31.201,67.202c0,20.88,1.92,66.962,31.201,66.962c12.48,0,22.32-10.32,28.32-20.16L104.562,232.866z"/>
</g>
<g>
	<path fill="#FFFFFF" d="M204.776,93.664l16.32,3.36l-47.521,162.964h-3.84L122.214,97.023l16.32-3.36l33.121,119.763
		L204.776,93.664z"/>
</g>
<circle fill="#FFFFFF" cx="255.149" cy="277.381" r="52.992"/>
<g>
	<path fill="#030100" stroke="#030100" stroke-width="4" stroke-miterlimit="10" d="M258.688,251.661
		c0,0.85-0.029,1.531-0.088,2.044s-0.146,0.908-0.264,1.186c-0.117,0.279-0.249,0.47-0.396,0.572s-0.308,0.153-0.483,0.153
		c-0.205,0-0.433-0.051-0.682-0.153s-0.557-0.213-0.922-0.33c-0.367-0.117-0.799-0.227-1.297-0.33
		c-0.498-0.102-1.084-0.153-1.758-0.153c-0.791,0-1.473,0.125-2.043,0.374c-0.572,0.249-1.048,0.645-1.429,1.186
		c-0.381,0.543-0.659,1.246-0.835,2.109c-0.176,0.865-0.264,1.927-0.264,3.187v3.604h7.163c0.264,0,0.505,0.073,0.726,0.22
		c0.219,0.146,0.402,0.389,0.549,0.725c0.146,0.338,0.256,0.799,0.33,1.385c0.072,0.586,0.109,1.304,0.109,2.153
		c0,1.611-0.146,2.762-0.439,3.45s-0.718,1.032-1.274,1.032h-7.163v31.729c0,0.293-0.088,0.55-0.264,0.769
		c-0.176,0.221-0.469,0.403-0.879,0.55s-0.981,0.256-1.714,0.329s-1.626,0.11-2.681,0.11s-1.941-0.037-2.658-0.11
		c-0.719-0.073-1.29-0.183-1.715-0.329s-0.718-0.329-0.879-0.55c-0.161-0.219-0.241-0.476-0.241-0.769v-31.729h-4.922
		c-0.557,0-0.975-0.344-1.253-1.032s-0.417-1.839-0.417-3.45c0-0.85,0.036-1.567,0.11-2.153c0.072-0.586,0.176-1.047,0.307-1.385
		c0.133-0.336,0.309-0.578,0.527-0.725c0.221-0.146,0.477-0.22,0.77-0.22h4.878v-3.296c0-2.666,0.264-5.002,0.791-7.01
		c0.527-2.006,1.354-3.676,2.483-5.01c1.127-1.332,2.563-2.336,4.307-3.01c1.742-0.674,3.801-1.011,6.174-1.011
		c1.143,0,2.227,0.096,3.252,0.286s1.831,0.395,2.417,0.615c0.586,0.219,0.981,0.425,1.187,0.615s0.373,0.469,0.506,0.834
		c0.131,0.367,0.227,0.836,0.285,1.406C258.659,250.102,258.688,250.812,258.688,251.661z"/>
	<path fill="#030100" stroke="#030100" stroke-width="4" stroke-miterlimit="10" d="M288.703,270.25
		c0,1.055-0.029,1.919-0.088,2.593s-0.146,1.201-0.264,1.582s-0.271,0.645-0.462,0.791s-0.432,0.22-0.725,0.22
		c-0.234,0-0.498-0.051-0.791-0.154c-0.293-0.102-0.623-0.212-0.988-0.329c-0.367-0.117-0.77-0.227-1.209-0.329
		s-0.923-0.154-1.45-0.154c-0.615,0-1.23,0.125-1.846,0.373c-0.615,0.25-1.253,0.638-1.911,1.165
		c-0.66,0.527-1.349,1.23-2.066,2.109s-1.486,1.963-2.307,3.252v24.434c0,0.293-0.088,0.55-0.264,0.769
		c-0.176,0.221-0.477,0.403-0.9,0.55c-0.426,0.146-0.989,0.256-1.692,0.329s-1.597,0.11-2.681,0.11s-1.978-0.037-2.681-0.11
		s-1.268-0.183-1.692-0.329s-0.725-0.329-0.9-0.55c-0.176-0.219-0.264-0.476-0.264-0.769v-39.199c0-0.293,0.073-0.55,0.22-0.769
		c0.146-0.221,0.41-0.403,0.791-0.55s0.871-0.256,1.472-0.329s1.355-0.11,2.264-0.11c0.938,0,1.714,0.037,2.329,0.11
		s1.091,0.183,1.429,0.329c0.336,0.146,0.578,0.329,0.725,0.55c0.146,0.219,0.22,0.476,0.22,0.769v4.878
		c1.025-1.465,1.992-2.673,2.9-3.625s1.772-1.707,2.593-2.264s1.641-0.945,2.461-1.164c0.82-0.221,1.641-0.33,2.461-0.33
		c0.381,0,0.791,0.021,1.23,0.066c0.439,0.043,0.894,0.117,1.362,0.219c0.469,0.104,0.879,0.221,1.23,0.352
		c0.352,0.133,0.607,0.271,0.769,0.418s0.278,0.308,0.352,0.483s0.14,0.417,0.198,0.726c0.059,0.307,0.103,0.769,0.132,1.384
		S288.703,269.195,288.703,270.25z"/>
</g>
<g>
	<path fill="#030100" stroke="#030100" stroke-width="4" stroke-miterlimit="10" d="M475.53,347.452c0,1.348-0.301,2.344-0.9,2.988
		c-0.602,0.645-1.429,0.967-2.483,0.967h-23.862c0,1.67,0.197,3.187,0.594,4.548c0.395,1.363,1.024,2.521,1.889,3.473
		s1.979,1.677,3.34,2.175c1.363,0.498,2.996,0.747,4.9,0.747c1.934,0,3.633-0.139,5.098-0.418c1.465-0.277,2.731-0.585,3.801-0.922
		s1.956-0.645,2.659-0.924c0.703-0.277,1.274-0.417,1.714-0.417c0.264,0,0.483,0.052,0.659,0.153
		c0.176,0.104,0.322,0.286,0.439,0.55s0.198,0.638,0.241,1.12c0.045,0.484,0.066,1.092,0.066,1.824c0,0.645-0.015,1.194-0.044,1.648
		s-0.073,0.842-0.132,1.164s-0.146,0.594-0.264,0.813c-0.117,0.221-0.271,0.433-0.461,0.638c-0.191,0.205-0.711,0.483-1.561,0.835
		s-1.934,0.696-3.252,1.033c-1.318,0.336-2.827,0.629-4.526,0.879c-1.699,0.248-3.516,0.373-5.449,0.373
		c-3.486,0-6.541-0.439-9.163-1.318s-4.812-2.212-6.569-3.999s-3.069-4.043-3.933-6.768c-0.865-2.725-1.297-5.918-1.297-9.58
		c0-3.486,0.454-6.628,1.362-9.427c0.908-2.797,2.227-5.17,3.955-7.119c1.729-1.947,3.83-3.435,6.306-4.46s5.267-1.538,8.372-1.538
		c3.281,0,6.087,0.483,8.415,1.45c2.33,0.967,4.241,2.308,5.735,4.021c1.494,1.715,2.593,3.743,3.296,6.087s1.055,4.893,1.055,7.646
		V347.452z M464.808,344.288c0.088-3.105-0.535-5.544-1.867-7.317c-1.334-1.771-3.392-2.658-6.175-2.658
		c-1.406,0-2.63,0.264-3.669,0.791c-1.041,0.527-1.905,1.238-2.594,2.131c-0.688,0.895-1.216,1.949-1.582,3.164
		c-0.366,1.217-0.578,2.513-0.637,3.89H464.808z"/>
	<path fill="#030100" stroke="#030100" stroke-width="4" stroke-miterlimit="10" d="M522.068,368.194
		c0,0.293-0.088,0.55-0.264,0.769c-0.176,0.221-0.469,0.403-0.879,0.55s-0.975,0.256-1.692,0.329s-1.604,0.11-2.658,0.11
		c-1.084,0-1.985-0.037-2.703-0.11s-1.281-0.183-1.691-0.329s-0.703-0.329-0.879-0.55c-0.176-0.219-0.264-0.476-0.264-0.769v-22.368
		c0-1.904-0.14-3.398-0.418-4.482s-0.681-2.014-1.208-2.791c-0.527-0.775-1.208-1.376-2.044-1.801
		c-0.834-0.425-1.809-0.638-2.922-0.638c-1.406,0-2.827,0.513-4.263,1.538s-2.93,2.52-4.482,4.482v26.06
		c0,0.293-0.088,0.55-0.264,0.769c-0.176,0.221-0.477,0.403-0.901,0.55s-0.988,0.256-1.691,0.329s-1.597,0.11-2.681,0.11
		s-1.978-0.037-2.681-0.11s-1.268-0.183-1.691-0.329c-0.426-0.146-0.726-0.329-0.901-0.55c-0.176-0.219-0.264-0.476-0.264-0.769
		v-39.199c0-0.293,0.073-0.55,0.22-0.769c0.146-0.221,0.41-0.403,0.791-0.55s0.871-0.256,1.473-0.329
		c0.6-0.073,1.354-0.11,2.263-0.11c0.938,0,1.714,0.037,2.329,0.11s1.091,0.183,1.428,0.329s0.579,0.329,0.726,0.55
		c0.146,0.219,0.22,0.476,0.22,0.769v4.526c2.168-2.344,4.373-4.102,6.613-5.273c2.242-1.172,4.578-1.758,7.01-1.758
		c2.666,0,4.914,0.439,6.746,1.318c1.83,0.879,3.31,2.073,4.438,3.582s1.941,3.273,2.439,5.295s0.747,4.453,0.747,7.295V368.194z"/>
</g>
</svg>
